<?xml version="1.0" encoding="UTF-8" standalone="no"?>
<!-- Created with Inkscape (http://www.inkscape.org/) -->

<svg
   xmlns:dc="http://purl.org/dc/elements/1.1/"
   xmlns:cc="http://creativecommons.org/ns#"
   xmlns:rdf="http://www.w3.org/1999/02/22-rdf-syntax-ns#"
   xmlns:svg="http://www.w3.org/2000/svg"
   xmlns="http://www.w3.org/2000/svg"
   xmlns:sodipodi="http://sodipodi.sourceforge.net/DTD/sodipodi-0.dtd"
   xmlns:inkscape="http://www.inkscape.org/namespaces/inkscape"
   width="143.83455mm"
   height="200mm"
   viewBox="0 0 143.83455 200"
   version="1.1"
   id="svg8"
   inkscape:version="0.92.1 r"
   sodipodi:docname="hk2.svg">
  <defs
     id="defs2" />
  <sodipodi:namedview
     id="base"
     pagecolor="#ffffff"
     bordercolor="#666666"
     borderopacity="1.0"
     inkscape:pageopacity="0.0"
     inkscape:pageshadow="2"
     inkscape:zoom="0.7"
     inkscape:cx="138.17575"
     inkscape:cy="210.13946"
     inkscape:document-units="mm"
     inkscape:current-layer="g21"
     showgrid="false"
     showguides="false"
     inkscape:window-width="1680"
     inkscape:window-height="990"
     inkscape:window-x="0"
     inkscape:window-y="34"
     inkscape:window-maximized="1"
     fit-margin-top="0"
     fit-margin-left="0"
     fit-margin-right="0"
     fit-margin-bottom="0" />
  <metadata
     id="metadata5">
    <rdf:RDF>
      <cc:Work
         rdf:about="">
        <dc:format>image/svg+xml</dc:format>
        <dc:type
           rdf:resource="http://purl.org/dc/dcmitype/StillImage" />
        <dc:title></dc:title>
      </cc:Work>
    </rdf:RDF>
  </metadata>
  <g
     inkscape:label="Layer 1"
     inkscape:groupmode="layer"
     id="layer1"
     transform="translate(-65.524002,-3.3913102)">
    <g
       id="g21"
       transform="translate(-46.869048)">
      <path
         style="fill:#c60202;stroke-width:0.48201314"
         d="m 154.13103,149.4601 c -3.3726,-1.44075 -3.85025,-7.71432 -0.77172,-10.1359 1.01476,-0.79821 1.9546,-0.97155 5.26724,-0.97155 h 4.03212 v 3.86318 c 0,3.69476 -0.0691,3.9385 -1.58309,5.59065 -1.27001,1.3858 -2.00882,1.76479 -3.7356,1.91619 -1.18388,0.10385 -2.62791,-0.0146 -3.20895,-0.26257 z m 55.74872,0.0911 c -3.07271,-1.46822 -3.8399,-2.977 -3.8399,-7.55173 v -3.64679 h 4.03212 c 3.33734,0 4.24894,0.17052 5.29052,0.98986 2.48831,1.95732 2.67974,7.23574 0.33921,9.35387 -1.0101,0.91416 -4.59593,1.44062 -5.82195,0.85479 z M 142.65513,91.018126 c -1.91665,-0.66686 -4.42017,-3.061838 -5.69283,-5.445903 -1.5698,-2.940763 -1.48387,-8.826642 0.17598,-12.055938 3.26124,-6.344766 11.18156,-7.403181 16.37384,-2.188024 2.91641,2.929213 3.36238,4.682088 3.36238,13.215352 v 7.053765 l -6.38669,-0.03808 c -3.51265,-0.02095 -7.03737,-0.264467 -7.83268,-0.541195 z m 69.17948,-7.012465 c 0.0128,-8.781317 0.47012,-10.374823 3.80022,-13.225262 3.63538,-3.111755 8.86036,-3.631798 12.47254,-1.241375 1.03344,0.683876 2.42079,2.306002 3.24476,3.793808 1.26464,2.283467 1.43844,3.067449 1.43111,6.455221 -0.009,4.259983 -0.90431,6.60355 -3.44209,9.01219 -2.44337,2.318992 -4.36397,2.797135 -11.23549,2.797135 h -6.28164 l 0.0109,-7.591717 z"
         id="path25"
         inkscape:connector-curvature="0"
         sodipodi:nodetypes="ccscsccccscscccccssscccccscccsccc" />
      <path
         style="fill:#050505;stroke-width:0.48201314"
         d="m 216.26352,201.34655 c -0.55389,-1.14415 -1.00704,-2.35113 -1.00704,-2.68222 0,-1.61172 -2.16418,-5.45716 -3.44357,-6.11879 l -1.37657,-0.71184 v 3.59904 c 0,3.67982 -0.46495,4.67016 -1.70815,3.6384 -0.5716,-0.47438 -0.70189,-2.36729 -0.70189,-10.19624 v -9.61376 l -1.08456,0.32892 c -2.96408,0.89887 -4.66165,4.49122 -3.73989,7.91432 0.28318,1.05167 0.88803,2.12461 1.34413,2.38434 0.65766,0.37452 0.71863,0.65207 0.29469,1.34148 -0.86903,1.41321 -1.80571,1.0077 -2.96006,-1.28142 -2.60882,-5.17344 -0.23874,-10.98368 5.13746,-12.59442 3.29657,-0.98767 3.41827,-0.77215 3.41827,6.05374 0,3.32217 0.18766,6.0403 0.417,6.0403 0.22936,0 0.98108,-0.44368 1.67046,-0.98595 1.35658,-1.0671 2.2437,-3.54428 2.24798,-6.27727 0.004,-2.08416 1.32046,-6.71515 1.90998,-6.71515 0.23317,0 0.76167,0.12953 1.17445,0.288 0.64964,0.2493 0.66336,0.45982 0.10202,1.56653 -0.35669,0.70319 -0.79178,2.36308 -0.96689,3.68862 -0.63904,4.83743 -1.30927,6.86288 -2.71734,8.21188 l -1.39581,1.3373 1.38072,1.57257 c 0.75941,0.86492 1.851,2.83756 2.42573,4.38364 0.57472,1.54613 1.44389,3.49335 1.93147,4.32723 0.64694,1.10645 0.74262,1.66002 0.35408,2.04857 -0.9684,0.96838 -1.68775,0.55702 -2.70667,-1.54782 z m -89.11909,-2.3543 c -0.34326,-0.34326 -0.57841,-1.9959 -0.57841,-4.06509 0,-3.44258 -0.0164,-3.4886 -1.32141,-3.63919 -0.79701,-0.092 -1.38491,-0.48729 -1.48139,-0.99604 -0.12425,-0.65509 0.17106,-0.84353 1.32142,-0.84353 h 1.48138 v -5.12138 -5.1214 l -1.54909,0.30981 c -2.06597,0.41321 -4.13742,2.4781 -4.74336,4.72838 -0.59419,2.20666 0.12188,5.41841 1.3661,6.12691 0.65768,0.37452 0.71865,0.65207 0.29469,1.34149 -0.86903,1.4132 -1.80573,1.00771 -2.96006,-1.28142 -2.75204,-5.45753 0.11022,-11.58483 6.08072,-13.01713 3.91807,-0.93992 3.92106,-0.93535 3.92106,5.99444 v 6.0403 h 2.35308 2.35307 l 0.19353,-6.21142 c 0.18906,-6.06778 0.7084,-8.06667 1.98526,-7.64103 0.47627,0.15868 0.52595,23.47271 0.051,23.94763 -0.1288,0.1288 -0.60319,0.002 -1.05441,-0.28161 -0.63266,-0.39764 -0.85261,-1.35885 -0.96118,-4.20058 l -0.14083,-3.68494 h -2.38978 -2.38981 v 4.09712 c 0,4.16128 -0.40707,4.94326 -1.83164,3.51868 z m 12.91797,-0.38559 c -1.14277,-1.14277 -1.28632,-4.40684 -0.38558,-8.76773 0.46173,-2.23548 0.76456,-2.8006 1.50076,-2.8006 0.778,0 0.87742,0.24505 0.63552,1.56655 -1.14425,6.25114 -0.94154,9.03775 0.65745,9.03775 1.79377,0 2.65301,-2.21732 2.65301,-6.84627 0,-2.33136 0.14501,-4.23912 0.32209,-4.23945 1.64278,-0.004 1.84697,0.61713 1.84697,5.60925 0,4.11753 0.13645,5.07704 0.75542,5.3146 1.40533,0.53927 1.89213,-0.77409 2.13665,-5.76467 0.19099,-3.89773 0.38814,-4.91876 0.94981,-4.91876 0.38983,0 0.95084,0.48554 1.24672,1.07898 l 0.53793,1.079 1.1457,-1.21955 c 1.30909,-1.39345 2.76565,-1.38292 3.54182,0.0255 0.29219,0.53023 0.58331,1.05226 0.64696,1.16009 0.0636,0.10785 0.66337,-0.39487 1.33272,-1.11713 1.47446,-1.59096 3.09405,-1.50985 3.95504,0.19804 0.34843,0.69122 0.61051,3.00345 0.61459,5.42266 0.005,3.13562 0.16779,4.21763 0.63372,4.21763 1.09367,0 1.7831,-1.10218 1.79403,-2.86799 0.0146,-2.24375 1.47025,-5.38651 3.0846,-6.65636 1.67677,-1.31897 3.96807,-1.81857 4.87778,-1.06357 1.10984,0.92107 0.82849,1.42965 -0.79096,1.42965 -1.061,0 -1.97659,0.48234 -3.15785,1.66359 -1.56437,1.56438 -1.65493,1.83001 -1.51834,4.45393 0.11641,2.23477 0.31783,2.82321 1.01194,2.95534 1.67334,0.31856 2.2664,-0.80974 2.2664,-4.31174 0,-2.39873 0.17325,-3.31508 0.62664,-3.31508 1.29768,0 1.78342,1.2078 1.78342,4.43451 0,2.93679 0.0986,3.2777 0.94707,3.2777 1.47382,0 1.94502,-1.50357 1.94502,-6.20604 0,-4.41267 0.40824,-5.45959 1.70817,-4.38073 0.53201,0.44152 0.70189,1.79323 0.70189,5.58465 0,4.63007 0.0696,5.00212 0.93557,5.00212 1.23904,0 1.47823,-0.47232 1.95801,-3.86659 0.49193,-3.48037 1.79251,-5.43211 4.38066,-6.57402 l 1.94877,-0.85981 -0.15285,-4.00892 c -0.14392,-3.77636 -0.0969,-4.00083 0.81116,-3.86956 0.92062,0.13299 0.96991,0.55799 1.095,9.43727 0.11386,8.08234 0.23395,9.33743 0.91859,9.60015 0.92107,0.35344 2.56553,-1.42565 2.56553,-2.77557 0,-1.17034 0.72336,-1.56884 1.38991,-0.76569 0.4031,0.4857 0.26266,1.15996 -0.56929,2.73323 -1.25784,2.3786 -3.25287,3.39661 -4.78334,2.44083 -0.70255,-0.43876 -1.27768,-0.43772 -2.50046,0.004 -1.31035,0.47383 -1.85575,0.44067 -3.11913,-0.18957 -1.40776,-0.70228 -1.64645,-0.69829 -2.96357,0.0495 -1.31651,0.74748 -1.54181,0.75132 -2.78216,0.0476 -1.21245,-0.68794 -1.46205,-0.69118 -2.4551,-0.0319 -0.9034,0.59982 -1.37952,0.6305 -2.6053,0.16778 -1.14178,-0.43097 -1.86936,-0.43254 -3.04735,-0.007 -1.26781,0.45845 -1.75461,0.42385 -2.69363,-0.19142 -0.98521,-0.64552 -1.2746,-0.65706 -2.0609,-0.0822 -1.27644,0.93337 -2.49317,0.83425 -3.62256,-0.29514 -0.82976,-0.82977 -0.96403,-1.60672 -0.96403,-5.5785 0,-4.01151 -0.10293,-4.59411 -0.78729,-4.45863 -1.48918,0.29479 -2.5868,3.26016 -2.5868,6.98857 0,3.56237 -0.47402,4.53727 -1.70815,3.51304 -0.53201,-0.44144 -0.70191,-1.79314 -0.70191,-5.58454 0,-4.09446 -0.12934,-5.00212 -0.7132,-5.00212 -1.34635,0 -2.66089,3.54834 -2.66089,7.18252 0,3.43449 -0.48262,4.42132 -1.67734,3.4298 -0.48525,-0.4027 -0.93785,-0.41419 -1.63424,-0.0415 -1.41396,0.75671 -2.38117,0.63321 -3.28222,-0.41912 -0.79182,-0.92477 -0.8127,-0.92477 -1.98834,0 -1.51768,1.19379 -2.73607,1.18472 -3.95023,-0.0295 z m 48.58696,-1.54245 c 0.74224,-0.74226 0.80136,-8.57982 0.0647,-8.57982 -1.89547,0 -3.82442,2.85546 -3.82442,5.66141 0,2.64092 2.27289,4.40522 3.75971,2.91841 z m 31.52966,1.93407 c -0.87281,-0.87281 -0.83242,-20.63618 0.0421,-20.63618 1.42623,0 1.78346,1.19601 1.78346,5.97075 v 4.8139 l 1.3519,-1.29523 c 1.54017,-1.47555 2.58423,-1.62834 3.67481,-0.53775 0.58182,0.58182 0.75744,1.81467 0.75744,5.31728 0,3.78671 0.13445,4.61141 0.79273,4.86401 1.07887,0.414 2.09936,-1.08956 2.09936,-3.09313 0,-0.88571 0.29587,-2.31852 0.65747,-3.18397 1.34081,-3.20902 5.81883,-5.62211 7.43461,-4.00634 0.82882,0.82882 0.74476,0.8926 -1.95868,1.48577 -1.82432,0.40028 -3.07211,1.76145 -3.77973,4.1232 -0.69247,2.31129 -0.15466,4.48076 1.17405,4.73665 1.66237,0.32014 2.25643,-0.81506 2.25643,-4.31174 0,-2.59001 0.15448,-3.31508 0.70606,-3.31508 1.12223,0 1.70402,1.63488 1.70402,4.78844 0,2.5728 0.11222,2.92377 0.93557,2.92377 1.43239,0 1.6958,-0.81118 1.9565,-6.02517 0.19055,-3.81094 0.38942,-4.82013 0.9498,-4.82013 0.38982,0 0.95085,0.48554 1.24671,1.07898 l 0.53793,1.079 1.12686,-1.19951 c 1.18977,-1.26642 2.17706,-1.48012 3.3689,-0.72916 0.53753,0.33868 0.78484,1.7266 0.96403,5.41038 0.20558,4.2267 0.36523,4.97851 1.08636,5.1159 0.61372,0.11696 1.11363,-0.46479 1.82449,-2.12313 0.70754,-1.65065 1.12505,-2.13827 1.50531,-1.75803 1.26894,1.26894 -1.7312,5.89891 -3.82237,5.89891 -1.87058,0 -2.47454,-1.44662 -2.62289,-6.28261 -0.15813,-5.15533 -0.72603,-5.7818 -2.65133,-2.92486 -0.89969,1.33505 -1.10372,2.28769 -1.10372,5.1532 0,3.55384 -0.47194,4.58072 -1.65421,3.59952 -0.47822,-0.39688 -0.9778,-0.38748 -1.90696,0.0359 -0.97208,0.44293 -1.54514,0.44324 -2.51482,0.001 -0.97062,-0.44223 -1.61828,-0.44116 -2.85138,0.005 -1.34832,0.48756 -1.79035,0.44926 -2.85323,-0.24713 -1.14008,-0.74702 -1.35675,-0.7547 -2.31701,-0.0822 -2.86716,2.00823 -4.13837,0.37782 -4.31993,-5.54063 -0.15449,-5.03774 -0.6505,-5.67401 -2.49804,-3.20467 -0.77003,1.02923 -1.07439,2.3038 -1.25704,5.26416 -0.23869,3.86865 -0.69506,4.78127 -1.82564,3.65073 z m -42.01833,-16.03391 c -1.27623,-1.53774 0.60678,-3.95485 2.10943,-2.70775 0.90674,0.75253 0.98992,2.0243 0.185,2.82919 -0.77281,0.77282 -1.58809,0.72966 -2.29443,-0.12151 z m -27.92556,-16.90754 c -14.17104,-3.9517 -20.65222,-20.08193 -13.47765,-33.54282 1.97989,-3.71463 6.79247,-8.27259 10.62572,-10.06355 4.15707,-1.94223 7.9915,-2.39125 20.51547,-2.4024 l 10.72481,-0.009 -0.004,12.41184 c -0.002,6.82649 -0.22699,13.82171 -0.49998,15.54491 -1.15375,7.28265 -5.83128,13.73729 -12.24182,16.89285 -3.04662,1.49969 -3.7802,1.65822 -8.19421,1.77055 -3.19523,0.0813 -5.73467,-0.12388 -7.44869,-0.60184 z m 14.49699,-6.6378 c 3.31765,-1.6232 6.79585,-5.26753 8.50242,-8.90858 1.28114,-2.73341 1.29182,-2.84582 1.29182,-13.60148 v -10.8453 H 163.89563 153.2649 l -3.68311,1.82101 c -6.1218,3.02673 -9.47365,7.98336 -9.90093,14.64137 -0.49113,7.65302 3.716,14.33179 10.95031,17.38351 2.28987,0.96594 3.33122,1.11037 7.05172,0.978 3.57239,-0.12716 4.85255,-0.39381 7.04923,-1.46853 z m 41.1251,6.69889 c -7.56572,-2.39899 -13.22647,-8.86419 -14.97211,-17.09984 -0.48284,-2.27792 -0.67896,-6.88379 -0.68495,-16.08572 l -0.009,-12.89384 10.72479,0.009 c 5.89863,0.005 12.19301,0.22185 13.98747,0.48135 11.28041,1.63116 20.11496,11.89482 20.11496,23.36875 0,10.54722 -6.79431,19.59064 -16.6463,22.15675 -3.38672,0.88212 -9.82999,0.91459 -12.5155,0.063 z m 13.31039,-6.68324 c 3.37717,-1.65229 6.85379,-5.14208 8.49668,-8.52891 1.12111,-2.31114 1.29727,-3.2842 1.31226,-7.24862 0.0146,-3.9695 -0.1512,-4.93207 -1.24817,-7.23019 -1.95321,-4.09185 -4.3323,-6.4842 -8.49489,-8.54228 l -3.68314,-1.82101 h -10.63071 -10.63073 v 10.8453 10.8453 l 1.34999,2.89208 c 2.13126,4.56575 6.15454,8.24092 10.61557,9.69705 3.34125,1.09062 9.74815,0.63977 12.91314,-0.90872 z m -81.03327,-47.85601 c -1.7232,-0.36903 -5.189,-1.68725 -7.70173,-2.92936 -12.36023,-6.10992 -19.49219,-19.38732 -17.79034,-33.119891 0.92049,-7.427721 4.19948,-13.793 10.14089,-19.685766 2.95825,-2.934041 4.66305,-4.158583 8.21644,-5.901821 5.66688,-2.780119 9.12468,-3.651346 14.49159,-3.651346 13.58565,0 25.90061,7.588055 31.68232,19.521515 3.09142,6.380765 3.378,8.832746 3.378,28.900483 v 17.613786 l -19.64202,-0.0382 c -14.83886,-0.029 -20.40821,-0.2024 -22.77515,-0.70929 z m 30.73333,-22.750517 c -0.23508,-15.282191 -0.48528,-16.738208 -3.75083,-21.827098 -1.84797,-2.879824 -6.45292,-7.28533 -8.94298,-8.555654 -5.97759,-3.049541 -13.1196,-3.346308 -18.52154,-0.769645 -12.29046,5.86247 -17.13212,21.025372 -10.74255,33.643109 2.46919,4.875997 7.78069,9.201345 13.1008,10.668515 1.5296,0.42181 6.39954,0.62587 15.6456,0.65554 l 13.42467,0.0432 z m 19.39607,5.947055 c 0,-20.134779 0.29307,-22.674934 3.33474,-28.904418 5.87023,-12.022363 18.11618,-19.580304 31.7256,-19.580304 5.00574,0 8.68414,0.85219 13.51746,3.131649 6.93839,3.272271 12.88191,9.08896 16.19319,15.847597 2.3806,4.859018 3.19287,8.512004 3.19287,14.358916 0,9.295658 -2.88277,16.308269 -9.39786,22.861282 -3.1658,3.18419 -4.71792,4.3154 -8.44709,6.15627 -7.10366,3.50664 -8.40405,3.66209 -30.71787,3.67171 l -19.40104,0.009 z m 40.23125,7.171942 c 7.50625,-1.955145 12.98344,-7.513853 15.38752,-15.616559 0.99679,-3.359625 1.00056,-9.700438 0.007,-13.080394 -1.99697,-6.798662 -6.9152,-12.844093 -12.65448,-15.554747 -5.99439,-2.831092 -14.03451,-2.185364 -19.99933,1.60624 -5.27453,3.352848 -9.83123,9.966928 -10.923,15.854866 -0.26476,1.427998 -0.4814,8.20631 -0.4814,15.062904 v 12.46657 h 12.91308 c 10.04645,0 13.54284,-0.16396 15.74984,-0.73888 z M 180.14562,49.664576 c 0,-0.662779 0.10931,-0.933914 0.24312,-0.602533 0.13372,0.33138 0.13372,0.873668 0,1.205049 -0.13372,0.331381 -0.24312,0.0603 -0.24312,-0.602516 z m 8.19422,0 c 0,-0.662779 0.10949,-0.933914 0.24313,-0.602533 0.13372,0.33138 0.13372,0.873668 0,1.205049 -0.13372,0.331381 -0.24313,0.0603 -0.24313,-0.602516 z m -8.68012,-2.293103 c -0.0909,-1.369993 -2.41312,-11.870646 -4.96395,-22.446192 -1.7477,-7.245962 -2.02593,-8.010142 -2.61179,-7.17371 -0.91674,1.308799 -6.65494,1.886666 -9.001,0.906405 -2.63706,-1.101827 -3.74003,-2.892303 -3.74003,-6.071287 0,-5.0643287 3.24971,-9.1953788 7.23361,-9.1953788 1.40065,0 2.26432,0.4184524 3.9793,1.9280512 1.2047,1.0604294 2.61656,1.9280531 3.13744,1.9280531 1.17858,0 2.07544,2.9775295 3.4525,11.4620815 1.15812,7.135836 3.06492,26.600202 2.78576,28.436769 -0.16396,1.078836 -0.21251,1.119043 -0.27184,0.225208 z m 9.15166,-0.777989 c -0.20864,-5.931424 3.01603,-31.743364 4.58913,-36.7338473 0.66272,-2.102406 1.02688,-2.6122222 1.86575,-2.6122222 0.57326,0 1.45549,-0.4568938 1.96052,-1.0153186 1.35744,-1.5009545 4.2647,-2.8407857 6.16419,-2.8407857 2.25193,0 4.35259,1.8462572 5.31528,4.671607 1.67186,4.9066668 0.49545,9.1454548 -2.93611,10.5792458 -2.23554,0.934097 -6.86602,0.478835 -8.54245,-0.839838 l -1.16969,-0.920069 -1.97506,8.227352 c -1.92649,8.025062 -4.56529,19.729325 -4.9927,22.144907 -0.1492,0.843663 -0.23289,0.645436 -0.27886,-0.661031 z"
         id="path23"
         inkscape:connector-curvature="0" />
    </g>
  </g>
</svg>
