<?xml version="1.0" encoding="UTF-8" standalone="no"?>
<!-- Created with Inkscape (http://www.inkscape.org/) -->

<svg
   xmlns:dc="http://purl.org/dc/elements/1.1/"
   xmlns:cc="http://creativecommons.org/ns#"
   xmlns:rdf="http://www.w3.org/1999/02/22-rdf-syntax-ns#"
   xmlns:svg="http://www.w3.org/2000/svg"
   xmlns="http://www.w3.org/2000/svg"
   xmlns:sodipodi="http://sodipodi.sourceforge.net/DTD/sodipodi-0.dtd"
   xmlns:inkscape="http://www.inkscape.org/namespaces/inkscape"
   width="79.011009mm"
   height="41.640045mm"
   viewBox="0 0 79.011009 41.640045"
   version="1.1"
   id="svg8"
   inkscape:version="0.92.1 r"
   sodipodi:docname="logo7.svg">
  <defs
     id="defs2" />
  <sodipodi:namedview
     id="base"
     pagecolor="#ffffff"
     bordercolor="#666666"
     borderopacity="1.0"
     inkscape:pageopacity="0.0"
     inkscape:pageshadow="2"
     inkscape:zoom="1.4"
     inkscape:cx="295.91302"
     inkscape:cy="39.922008"
     inkscape:document-units="mm"
     inkscape:current-layer="g21"
     showgrid="false"
     fit-margin-top="0"
     fit-margin-left="0"
     fit-margin-right="0"
     fit-margin-bottom="0"
     inkscape:window-width="1680"
     inkscape:window-height="990"
     inkscape:window-x="0"
     inkscape:window-y="34"
     inkscape:window-maximized="1" />
  <metadata
     id="metadata5">
    <rdf:RDF>
      <cc:Work
         rdf:about="">
        <dc:format>image/svg+xml</dc:format>
        <dc:type
           rdf:resource="http://purl.org/dc/dcmitype/StillImage" />
        <dc:title></dc:title>
      </cc:Work>
    </rdf:RDF>
  </metadata>
  <g
     inkscape:label="Layer 1"
     inkscape:groupmode="layer"
     id="layer1"
     transform="translate(-65.494496,-127.27453)">
    <g
       id="g21"
       transform="translate(-20.045215,-26.994222)">
      <path
         style="fill:#ba031f;stroke-width:0.26458332"
         d="m 117.15854,191.21802 c -0.17462,-0.17462 -0.3175,-0.62706 -0.3175,-1.00541 0,-0.97525 0.46589,-1.32292 1.77271,-1.32292 1.11381,0 1.13771,0.0186 1.13771,0.88503 0,0.52139 -0.19881,1.06496 -0.48385,1.32292 -0.56598,0.5122 -1.65508,0.57437 -2.10907,0.12038 z m 13.75834,0 c -0.17463,-0.17462 -0.3175,-0.76994 -0.3175,-1.32291 0,-0.98778 0.0176,-1.00542 1.00541,-1.00542 0.55298,0 1.14829,0.14287 1.32292,0.3175 0.34229,0.34229 0.41567,1.23547 0.1569,1.90982 -0.19214,0.50069 -1.69789,0.57086 -2.16773,0.10101 z m -16.78782,-14.52036 c -0.61621,-0.35891 -1.25677,-1.63586 -1.25677,-2.50537 0,-2.73578 2.91985,-3.95575 4.62306,-1.9316 0.58368,0.69367 0.66861,1.04407 0.66861,2.75867 v 1.96408 l -1.78594,-0.008 c -0.98226,-0.004 -1.9943,-0.1294 -2.24896,-0.27773 z m 17.83241,-1.81068 c 0.0802,-1.76527 0.19433,-2.20198 0.7227,-2.7644 2.29577,-2.44374 5.71104,0.48618 4.13018,3.54324 -0.55486,1.07298 -1.14582,1.31762 -3.18289,1.31762 h -1.7652 z"
         id="path25"
         inkscape:connector-curvature="0"
         sodipodi:nodetypes="sssscscssscccscscccccccscc" />
      <path
         style="fill:#070707;stroke-width:0.26458332"
         d="m 115.70221,195.59252 c -4.16504,-1.53002 -5.03882,-7.09982 -1.56324,-9.96468 1.27871,-1.05402 2.67954,-1.37188 6.04603,-1.37188 h 2.79326 v 3.79485 c 0,3.46199 -0.054,3.89712 -0.61563,4.96093 -0.89905,1.70295 -2.44964,2.701 -4.34394,2.796 -0.8375,0.042 -1.87991,-0.0548 -2.31648,-0.21522 z m 3.31903,-1.28128 c 1.06384,-0.29554 2.46482,-1.62258 2.88246,-2.73031 0.15444,-0.40966 0.28081,-1.94088 0.28081,-3.40271 v -2.65788 l -2.84427,0.0979 c -2.26524,0.078 -3.03261,0.20802 -3.76942,0.63889 -1.45381,0.85017 -2.11756,2.04746 -2.11756,3.8197 0,1.88936 0.71479,3.06475 2.3733,3.9026 1.3083,0.66093 1.81908,0.71399 3.19468,0.33184 z m 10.0179,0.97053 c -0.76488,-0.40396 -1.43919,-1.05634 -1.95984,-1.8961 -0.77498,-1.24998 -0.79577,-1.37306 -0.87896,-5.20498 l -0.0852,-3.92473 h 2.81232 c 3.84044,0 4.9869,0.32756 6.52306,1.86372 2.38988,2.38989 2.44906,5.65089 0.14593,8.04222 -1.74632,1.81321 -4.38971,2.26465 -6.5573,1.11987 z m 3.46096,-0.8784 c 1.21928,-0.24386 2.79467,-1.8398 3.16087,-3.2021 0.60521,-2.25145 -0.79408,-4.70612 -3.03784,-5.32906 -0.57525,-0.15971 -2.08771,-0.29104 -3.36102,-0.29185 l -2.3151,-0.001 0.002,2.44739 c 0.002,3.05233 0.28479,4.09253 1.4098,5.18294 1.21953,1.18201 2.44127,1.53426 4.14182,1.19416 z m -46.889459,-14.24851 -0.07093,-13.36152 1.984375,3e-5 1.984375,3e-5 v 13.36146 13.36145 l -1.913445,4e-5 -1.913445,3e-5 z m 16.404169,0 -0.0709,-13.36152 1.98437,3e-5 1.98438,3e-5 v 13.36146 13.36145 l -1.91345,4e-5 -1.91344,3e-5 z m 42.52699,0.13235 v -13.22916 h 1.85208 1.85208 v 13.22916 13.22917 h -1.85208 -1.85208 z m 15.41128,12.76615 c -0.13437,-0.48399 -7.82025,-11.43752 -8.68955,-12.38393 -0.49348,-0.53724 -0.48724,-0.55579 0.51655,-1.53597 l 1.01607,-0.99216 0.40094,0.60993 c 0.22051,0.33547 2.49054,3.27302 5.04449,6.52791 2.55396,3.25488 5.01832,6.4398 5.47635,7.0776 l 0.83279,1.15964 h -2.23454 c -1.90277,0 -2.25363,-0.0687 -2.3631,-0.46302 z m -47.85389,-11.27934 c -1.68291,-0.60139 -2.85517,-1.49382 -3.92538,-2.98835 -4.26913,-5.96178 1.01738,-14.18258 8.25482,-12.83663 3.10331,0.57712 5.85642,2.9523 6.71015,5.78902 0.25387,0.84357 0.36864,2.65335 0.36864,5.81308 v 4.58816 l -5.22552,-0.0116 c -3.57559,-0.008 -5.52775,-0.11961 -6.18271,-0.35367 z m 8.45073,-5.93915 c -0.0819,-3.77171 -0.11338,-3.96571 -0.81507,-5.02482 -2.05358,-3.09965 -6.3482,-3.5697 -8.65108,-0.94685 -1.28665,1.46541 -1.66295,2.62433 -1.52375,4.69277 0.14436,2.145 1.03019,3.64668 2.71361,4.60016 0.944,0.53468 1.40816,0.59364 4.70442,0.59756 l 3.65708,0.004 z m 5.11567,1.23028 c 0.085,-4.78427 0.13169,-5.19233 0.72812,-6.3593 0.86668,-1.69576 2.45815,-3.24067 4.23266,-4.10886 2.05011,-1.00302 5.08571,-1.03842 7.02936,-0.082 6.13466,3.01879 6.50658,11.45686 0.64784,14.69823 l -1.43469,0.79375 -5.64704,0.0852 -5.64703,0.0852 z m 11.76467,1.74604 c 1.46381,-1.18588 2.21675,-2.76851 2.21675,-4.65951 0,-1.76507 -0.388,-2.87106 -1.4484,-4.12867 -2.42096,-2.87121 -6.77553,-2.37484 -8.80421,1.00358 l -0.85989,1.43201 v 3.66878 3.66879 l 3.94513,-0.0852 3.94514,-0.0852 z m -42.453202,1.92041 -0.57677,-0.61394 0.662941,-0.6228 0.662942,-0.62281 0.662942,0.62281 0.662941,0.6228 -0.57677,0.61394 c -0.317224,0.33767 -0.654325,0.61395 -0.749113,0.61395 -0.09479,0 -0.431889,-0.27628 -0.749113,-0.61395 z M 160.6739,169.16261 c -0.0941,-0.15218 -0.76661,-0.74749 -1.49458,-1.32292 l -1.32358,-1.04623 h 2.85808 2.85809 l -1.30303,1.32292 c -1.46176,1.48408 -1.364,1.41995 -1.59498,1.04623 z"
         id="path23"
         inkscape:connector-curvature="0"
         sodipodi:nodetypes="csscscccccscccssccccccsccccccccccccccccccccccccccccccccccccccccccccccccsccsccsccccccccccccccccccccccscccccccccccccccscccccccc" />
      <path
         style="fill:#000000;stroke-width:0.26458332"
         d="m 125.91553,163.88306 c 0.19868,-2.68398 0.60279,-5.90527 0.9128,-7.27623 0.22204,-0.98195 0.45065,-1.29521 1.30331,-1.78594 1.29792,-0.74699 1.46689,-0.74294 2.26414,0.0543 0.79528,0.79528 0.8781,2.23662 0.16558,2.88144 -0.54756,0.49554 -2.17179,0.58682 -2.61182,0.14679 -0.21173,-0.21173 -0.47872,0.52762 -0.97934,2.71198 -1.25221,5.46379 -1.20682,5.32316 -1.05467,3.26765 z m -3.00519,-1.27825 c -1.06838,-4.84645 -0.91141,-4.55653 -2.41108,-4.45301 -1.11149,0.0767 -1.35888,0.002 -1.72576,-0.5219 -0.534,-0.76238 -0.54076,-1.36082 -0.0266,-2.3551 0.56346,-1.0896 1.50363,-1.26189 2.64033,-0.48385 0.77716,0.53195 0.97122,0.88253 1.29816,2.34524 0.39599,1.77162 1.091,7.88618 0.91625,8.06094 -0.054,0.054 -0.36509,-1.11254 -0.6913,-2.59232 z"
         id="path25-3"
         inkscape:connector-curvature="0"
         sodipodi:nodetypes="ccsccssccsccccccs" />
    </g>
  </g>
</svg>
